<svg width="173" height="41" viewBox="0 0 173 41" fill="none" xmlns="http://www.w3.org/2000/svg">
<path d="M26.4118 21.6471C26.2941 21.8431 26.1176 21.9804 25.8823 22.0588C25.6863 22.098 25.4902 22.1765 25.2941 22.2941C25.098 22.4118 24.902 22.5686 24.7059 22.7647C24.5098 22.9608 24.3137 23.1176 24.1176 23.2353C24.6667 25.3529 25.098 27.1961 25.4118 28.7647C25.7255 30.3333 25.9216 31.5098 26 32.2941C26.0784 33.0784 26.1373 33.9412 26.1765 34.8824C26.2157 35.8235 26.2353 36.6863 26.2353 37.4706C26.2353 38.0588 26.1961 38.5294 26.1176 38.8824C26.0784 39.2745 26 39.6471 25.8823 40C25.4118 39.4118 25.0196 38.7843 24.7059 38.1176C24.4314 37.451 24.1373 36.7843 23.8235 36.1176C23.1569 34.1176 22.5098 32.0196 21.8824 29.8235C21.2941 27.6275 20.7059 25.3922 20.1176 23.1176C19.0196 23.0784 17.8431 23.0588 16.5882 23.0588C15.3333 23.0588 14.0784 23.0588 12.8235 23.0588C11.5686 23.0588 10.3725 23.0784 9.23529 23.1176C8.13725 23.1176 7.17647 23.1373 6.35294 23.1765C6.27451 23.4118 6.19608 23.6863 6.11765 24C5.88235 24.5098 5.68627 25.0784 5.52941 25.7059C5.37255 26.2941 5.23529 26.9412 5.11765 27.6471C5 28.3137 4.86274 29.0196 4.70588 29.7647C4.54902 30.5098 4.35294 31.2549 4.11765 32C4.62745 32 5.11765 31.8431 5.58823 31.5294C6.09804 31.1765 6.60784 31 7.11765 31C6.76471 31.3529 6.45098 31.7451 6.17647 32.1765C5.94118 32.6078 5.72549 33.1765 5.52941 33.8824C5.4902 34.0784 5.37255 34.2745 5.17647 34.4706C4.98039 34.7059 4.84314 34.8824 4.76471 35C4.68627 35.1569 4.60784 35.3137 4.52941 35.4706C4.45098 35.6667 4.35294 35.8039 4.23529 35.8824C3.96078 36.0392 3.72549 36.1176 3.52941 36.1176C3.33333 36.1569 3.19608 36.1176 3.11765 36C2.80392 35.5294 2.58824 35.0196 2.47059 34.4706C2.39216 33.9608 2.31373 33.4118 2.23529 32.8235C2.23529 31.7647 2.37255 30.3922 2.64706 28.7059C2.92157 27.0196 3.27451 25.2157 3.70588 23.2941C3.39216 23.2157 3.07843 23.0784 2.76471 22.8824C2.45098 22.6471 2.17647 22.4902 1.94118 22.4118C1.5098 22.2157 1.15686 22.1176 0.882353 22.1176C0.607843 22.0784 0.313726 21.9216 0 21.6471L3.58824 20.7059C3.78431 20.7059 4.03922 20.6667 4.35294 20.5882C4.82353 18.7451 5.29412 16.9804 5.76471 15.2941C6.23529 13.6078 6.68627 12.1765 7.11765 11C7.43137 10.098 7.80392 9.05882 8.23529 7.88235C8.70588 6.70588 9.23529 5.58824 9.82353 4.52941C10.451 3.43137 11.1373 2.4902 11.8824 1.70588C12.6667 0.92157 13.5098 0.431373 14.4118 0.235295C14.6863 0.156864 14.9608 0.0980415 15.2353 0.0588263C15.5098 0.0196088 15.8039 0 16.1176 0C16.4314 0 16.6667 0.156863 16.8235 0.470589C16.9804 0.7451 17.2157 1.09804 17.5294 1.52941C17.7255 1.88235 17.902 2.19608 18.0588 2.47059C18.2549 2.70588 18.451 3.21569 18.6471 4C19.5882 6.86275 20.4706 9.7451 21.2941 12.6471C22.1176 15.5098 22.8431 18.2157 23.4706 20.7647L27.0588 21.5294L26.4118 21.6471ZM14.4118 2.76471C13.7451 3.66667 13.1176 4.66667 12.5294 5.76471C11.9412 6.82353 11.3529 8.05882 10.7647 9.47059C10.1765 10.8431 9.58823 12.4314 9 14.2353C8.41176 16 7.80392 18 7.17647 20.2353C9.21569 20 11.2549 19.8627 13.2941 19.8235C15.3333 19.7843 17.3529 19.8627 19.3529 20.0588C18.5294 16.8824 17.7255 13.8039 16.9412 10.8235C16.1569 7.80392 15.3137 5.11765 14.4118 2.76471Z" transform="translate(1 1)" fill="#28324E"/>
<path d="M33.5882 24.1765C34.2549 23.5098 34.9216 22.8039 35.5882 22.0588C36.2941 21.2745 37.0196 20.5294 37.7647 19.8235C38.5098 19.1176 39.2745 18.4902 40.0588 17.9412C40.8431 17.3529 41.6667 16.8824 42.5294 16.5294C42.7255 16.451 42.902 16.4314 43.0588 16.4706C43.2549 16.5098 43.451 16.4902 43.6471 16.4118C43.9608 16.4118 44.2353 16.4118 44.4706 16.4118C44.7059 16.4118 44.9216 16.4902 45.1176 16.6471C45.6667 17 46.098 17.5098 46.4118 18.1765C46.7647 18.8039 47.0588 19.5098 47.2941 20.2941C47.451 20.7255 47.5294 21.1373 47.5294 21.5294C47.5686 21.9216 47.6863 22.3726 47.8823 22.8824C48.1176 23.6275 48.3725 24.3922 48.6471 25.1765C48.9608 25.9216 49.0784 26.6471 49 27.3529C48.9608 27.549 48.902 27.7255 48.8235 27.8824C48.7451 28 48.6471 28.1569 48.5294 28.3529C48.451 28.5098 48.3137 28.7059 48.1176 28.9412C47.9216 29.1765 47.7255 29.3529 47.5294 29.4706C47.3333 29.6275 47.1961 29.7647 47.1176 29.8824C47.0784 29.9608 46.902 30.0588 46.5882 30.1765C46.0784 29.4314 45.6863 28.6275 45.4118 27.7647C45.1372 26.902 44.902 26 44.7059 25.0588C44.5098 24.1176 44.3333 23.1569 44.1765 22.1765C44.0196 21.1961 43.8235 20.1961 43.5882 19.1765C43.5098 18.902 43.2549 18.7451 42.8235 18.7059C42.4314 18.6667 41.9608 18.8039 41.4118 19.1176C40.902 19.3922 40.3529 19.8431 39.7647 20.4706C39.1765 21.098 38.6471 21.902 38.1765 22.8824C37.8627 23.5882 37.5686 24.3333 37.2941 25.1176C37.0196 25.8627 36.7059 26.6275 36.3529 27.4118C36.0392 28.1569 35.6471 28.902 35.1765 29.6471C34.7451 30.3529 34.2157 31 33.5882 31.5882C33.3922 31.7843 33.2549 31.8039 33.1765 31.6471C33.098 31.4902 32.902 31.3529 32.5882 31.2353C32.3529 31.1569 32.2157 31.0784 32.1765 31C32.1765 30.9216 32.1176 30.6863 32 30.2941C31.7647 29.4706 31.5098 28.5294 31.2353 27.4706C31 26.4118 30.7255 25.2941 30.4118 24.1176C30.1373 22.9412 29.8431 21.7647 29.5294 20.5882C29.2157 19.3725 28.902 18.2353 28.5882 17.1765L28.2353 16.1176C28.3137 15.9608 28.451 15.8235 28.6471 15.7059C28.8823 15.5882 29.1176 15.4902 29.3529 15.4118C29.5882 15.3333 29.8431 15.3529 30.1176 15.4706C30.3922 15.5882 30.6078 15.6471 30.7647 15.6471C31.1961 15.6471 31.5686 15.9216 31.8823 16.4706C32.2353 17.0196 32.5294 17.7255 32.7647 18.5882C33 19.4118 33.1765 20.3333 33.2941 21.3529C33.451 22.3333 33.549 23.2745 33.5882 24.1765Z" transform="translate(1 1)" fill="#28324E"/>
<path d="M59.1392 12.8235C59.453 13.1373 59.5706 13.3922 59.4922 13.5882C59.453 13.7843 59.3353 13.8627 59.1392 13.8235C58.6294 13.8235 58.0608 13.8824 57.4334 14C56.8451 14.0784 56.1981 14.1569 55.4922 14.2353C54.8255 14.2745 54.1196 14.2745 53.3745 14.2353C52.6294 14.1961 51.8843 14.0588 51.1392 13.8235C50.8255 13.5098 50.8255 13.2353 51.1392 13C51.4922 12.7255 51.7667 12.3333 51.9628 11.8235C52.0804 11.4706 52.2373 11.2353 52.4334 11.1176C52.6687 10.9608 52.9039 10.8627 53.1392 10.8235C53.5706 10.8235 54.1 10.9216 54.7275 11.1176C55.3941 11.2745 55.9432 11.3726 56.3745 11.4118C57.0412 11.4902 57.5902 11.6078 58.0216 11.7647C58.453 11.8824 58.8255 12.2353 59.1392 12.8235ZM57.9039 20.8235C58.1392 21.7255 58.3157 22.549 58.4334 23.2941C58.5902 24.0392 58.6883 24.7647 58.7275 25.4706C58.8059 26.1373 58.8451 26.8235 58.8451 27.5294C58.8843 28.2353 58.9039 29 58.9039 29.8235C58.9039 29.9804 58.8059 30.1569 58.6098 30.3529C58.453 30.5098 58.3353 30.6863 58.2569 30.8824C58.1 31.2353 57.9628 31.451 57.8451 31.5294C57.7667 31.6078 57.6098 31.7059 57.3745 31.8235C56.8255 32.0588 56.3353 32.3922 55.9039 32.8235C55.3941 32.0784 55.0412 31.2157 54.8451 30.2353C54.6883 29.2549 54.5706 28.2353 54.4922 27.1765C54.453 26.1176 54.3941 25.0588 54.3157 24C54.2765 22.902 54.1392 21.8431 53.9039 20.8235C53.7863 20.2745 53.8255 19.902 54.0216 19.7059C54.2177 19.5098 54.4334 19.3725 54.6687 19.2941C54.9432 19.2157 55.2373 19.2745 55.551 19.4706C55.9039 19.6667 56.2373 19.8627 56.551 20.0588C56.8255 20.2157 57.0804 20.3137 57.3157 20.3529C57.5902 20.3529 57.7863 20.5098 57.9039 20.8235Z" transform="translate(1 1)" fill="#28324E"/>
<path d="M64.8414 14.1765C65.0767 15.1961 65.1748 16.2549 65.1356 17.3529C65.0963 18.451 65.0375 19.5686 64.9591 20.7059C64.9199 21.8039 64.9199 22.9216 64.9591 24.0588C65.0375 25.1569 65.3316 26.1961 65.8414 27.1765C66.7434 24.9412 67.9787 22.9216 69.5473 21.1176C71.1159 19.2745 72.7826 17.6275 74.5473 16.1765C74.7826 15.9804 75.0179 15.8627 75.2532 15.8235C75.5277 15.7451 75.7826 15.6667 76.0179 15.5882C76.214 15.5098 76.3905 15.451 76.5473 15.4118C76.7434 15.3333 76.9983 15.3726 77.312 15.5294C78.0963 15.9608 78.5473 16.7843 78.665 18C78.7826 19.2157 78.8414 20.9412 78.8414 23.1765C79.4297 22.5882 80.0179 21.9412 80.6061 21.2353C81.2336 20.4902 81.861 19.7843 82.4885 19.1176C83.1159 18.451 83.763 17.8627 84.4297 17.3529C85.0963 16.8431 85.8022 16.4706 86.5473 16.2353C86.7826 16.1569 87.0179 16.1569 87.2532 16.2353C87.5277 16.2745 87.7826 16.2941 88.0179 16.2941C88.1748 16.2941 88.312 16.2745 88.4297 16.2353C88.5473 16.1569 88.6846 16.1373 88.8414 16.1765C89.0767 16.2157 89.2728 16.3333 89.4297 16.5294C89.6258 16.7255 89.763 16.9412 89.8414 17.1765C89.9983 17.7647 90.214 18.5882 90.4885 19.6471C90.763 20.6667 90.9983 21.7255 91.1944 22.8235C91.4297 23.8824 91.6061 24.8824 91.7238 25.8235C91.8414 26.7647 91.8414 27.4314 91.7238 27.8235C91.6454 28.1765 91.5473 28.4118 91.4297 28.5294C91.3512 28.6471 91.1552 28.8627 90.8414 29.1765C90.763 29.1765 90.665 29.2353 90.5473 29.3529C90.4689 29.4706 90.3708 29.5882 90.2532 29.7059C90.0963 29.8627 89.9591 30.0196 89.8414 30.1765C89.3316 29.4314 88.9395 28.6275 88.665 27.7647C88.3905 26.902 88.1552 26 87.9591 25.0588C87.763 24.1176 87.5865 23.1569 87.4297 22.1765C87.2728 21.1961 87.0767 20.1961 86.8414 19.1765C85.7042 19.7647 84.8022 20.451 84.1356 21.2353C83.5081 21.9804 82.9983 22.7843 82.6061 23.6471C82.214 24.4706 81.861 25.3137 81.5473 26.1765C81.2336 27.0392 80.8414 27.8627 80.3709 28.6471C79.9395 29.3137 79.5081 29.8431 79.0767 30.2353C78.6454 30.6275 78.2924 30.8039 78.0179 30.7647C77.7826 30.7255 77.6061 30.5098 77.4885 30.1176C77.3708 29.7255 77.214 29.1373 77.0179 28.3529C76.6258 26.7451 76.2532 25.0196 75.9003 23.1765C75.5865 21.3333 75.2336 19.6667 74.8414 18.1765C74.0963 18.4118 73.3512 18.8431 72.6061 19.4706C71.9003 20.0588 71.2336 20.7647 70.6061 21.5882C69.9787 22.3725 69.4101 23.2549 68.9003 24.2353C68.4297 25.2157 68.0767 26.1961 67.8414 27.1765C68.3512 28.1961 68.3709 29.0392 67.9003 29.7059C67.7042 30.0196 67.4297 30.2941 67.0767 30.5294C66.7238 30.7255 66.312 30.9412 65.8414 31.1765C65.5669 31.451 65.2728 31.549 64.9591 31.4706C64.6454 31.3922 64.3905 31.2157 64.1944 30.9412C63.9983 30.6274 63.8807 30.3726 63.8414 30.1765C63.6061 28.9216 63.3709 27.6274 63.1356 26.2941C62.9003 24.9216 62.7434 23.549 62.665 22.1765C62.6258 20.8039 62.6846 19.451 62.8414 18.1176C62.9983 16.7451 63.3316 15.4314 63.8414 14.1765C63.9199 13.9412 63.9983 13.8235 64.0767 13.8235C64.1552 13.8235 64.2336 13.8627 64.312 13.9412C64.3905 13.9804 64.4689 14.0196 64.5473 14.0588C64.6258 14.098 64.665 14.1176 64.665 14.1176C64.7042 14.1176 64.763 14.1373 64.8414 14.1765Z" transform="translate(1 1)" fill="#28324E"/>
<path d="M108.889 14.8235C109.399 16.0784 109.869 17.4314 110.301 18.8824C110.771 20.3333 111.085 21.7843 111.242 23.2353C111.438 24.6471 111.438 26.0196 111.242 27.3529C111.085 28.6863 110.634 29.8431 109.889 30.8235C109.575 31.2157 109.202 31.3725 108.771 31.2941C108.614 31.2549 108.477 31.1569 108.359 31C108.242 30.8431 108.085 30.7059 107.889 30.5882C107.732 30.4706 107.555 30.3725 107.359 30.2941C107.202 30.2157 107.046 30.0588 106.889 29.8235C106.301 30.0196 105.712 30.3137 105.124 30.7059C104.575 31.0588 104.006 31.4314 103.418 31.8235C102.83 32.2157 102.222 32.5882 101.595 32.9412C100.967 33.3333 100.32 33.6078 99.6535 33.7647C98.9476 33.9608 98.4182 33.9216 98.0652 33.6471C97.7515 33.4118 97.3986 33.1373 97.0064 32.8235C96.7319 32.5882 96.5554 32.4314 96.477 32.3529C96.3986 32.3137 96.3201 32.0784 96.2417 31.6471C96.1241 30.7843 96.1045 29.8627 96.1829 28.8824C96.3005 27.8627 96.5358 26.8431 96.8888 25.8235C97.8692 22.8431 99.8692 20.8431 102.889 19.8235C103.242 19.7059 103.595 19.6863 103.948 19.7647C104.34 19.8039 104.712 19.902 105.065 20.0588C105.418 20.2157 105.752 20.4118 106.065 20.6471C106.418 20.8824 106.732 21.1176 107.006 21.3529L107.948 22.1176C108.144 21.451 108.124 20.7451 107.889 20C107.693 19.2157 107.379 18.4902 106.948 17.8235C106.516 17.1176 106.026 16.4902 105.477 15.9412C104.928 15.3922 104.399 15.0196 103.889 14.8235C101.889 14.8235 100.085 15.2941 98.477 16.2353C96.9084 17.1373 95.379 18.3333 93.8888 19.8235C93.8103 19.902 93.7123 19.9608 93.5947 20C93.5162 20.0392 93.4378 20.0784 93.3594 20.1176C93.2417 20.1961 93.1045 20.2157 92.9476 20.1765C92.83 20.1373 92.8103 20.0196 92.8888 19.8235C93.1241 18.5686 93.5947 17.451 94.3005 16.4706C95.0064 15.451 95.8299 14.5686 96.7711 13.8235C97.7123 13.0784 98.7123 12.451 99.7711 11.9412C100.83 11.4314 101.869 11.0588 102.889 10.8235C103.046 10.7451 103.183 10.7059 103.301 10.7059C103.457 10.6667 103.634 10.6471 103.83 10.6471C104.104 10.6471 104.359 10.7255 104.595 10.8824C104.83 11.0392 105.104 11.2157 105.418 11.4118C105.81 11.6078 106.202 11.8431 106.595 12.1176C106.987 12.3529 107.34 12.6471 107.653 13C107.928 13.3137 108.163 13.6275 108.359 13.9412C108.555 14.2549 108.732 14.549 108.889 14.8235ZM106.889 25.2941C106.653 24.7843 106.281 24.3137 105.771 23.8824C105.301 23.451 104.752 23.1373 104.124 22.9412C103.497 22.7059 102.81 22.6471 102.065 22.7647C101.359 22.8824 100.634 23.2353 99.8888 23.8235C99.6535 24.3333 99.4182 24.902 99.1829 25.5294C98.9476 26.1176 98.7711 26.7255 98.6535 27.3529C98.5358 27.9412 98.477 28.549 98.477 29.1765C98.5162 29.7647 98.6535 30.3137 98.8888 30.8235C100.379 30.3137 101.83 29.7255 103.242 29.0588C104.653 28.3922 105.869 27.8039 106.889 27.2941C107.124 27.0588 107.261 26.8627 107.301 26.7059C107.34 26.549 107.32 26.4118 107.242 26.2941C107.202 26.1765 107.124 26.0392 107.006 25.8824C106.928 25.7255 106.889 25.5294 106.889 25.2941Z" transform="translate(1 1)" fill="#28324E"/>
<path d="M118.733 4.17647C119.204 6.29412 119.576 8.41177 119.851 10.5294C120.125 12.6471 120.38 14.7647 120.615 16.8824C120.851 19 121.086 21.1176 121.321 23.2353C121.596 25.3529 121.949 27.4706 122.38 29.5882C122.302 30.098 122.243 30.5098 122.204 30.8235C122.164 31.1373 122.066 31.3333 121.909 31.4118C121.713 31.5294 121.517 31.6667 121.321 31.8235C121.164 31.9412 120.988 32.0392 120.792 32.1176C120.713 32.1569 120.635 32.2157 120.557 32.2941C120.478 32.4118 120.38 32.4902 120.262 32.5294C120.184 32.5686 120.106 32.5686 120.027 32.5294C119.949 32.4902 119.851 32.3725 119.733 32.1765C118.988 29.9412 118.302 27.6863 117.674 25.4118C117.086 23.1373 116.596 20.8431 116.204 18.5294C115.851 16.2157 115.615 13.8824 115.498 11.5294C115.419 9.13726 115.498 6.68628 115.733 4.17647C115.733 3.58824 115.909 3.21569 116.262 3.05882C116.419 2.98039 116.615 3.03922 116.851 3.2353C117.125 3.43137 117.36 3.56863 117.557 3.64706C117.831 3.76471 118.047 3.84314 118.204 3.88235C118.36 3.88235 118.537 3.98039 118.733 4.17647Z" transform="translate(1 1)" fill="#28324E"/>
<path d="M133.363 12.8235C133.676 13.1373 133.794 13.3922 133.716 13.5882C133.676 13.7843 133.559 13.8627 133.363 13.8235C132.853 13.8235 132.284 13.8824 131.657 14C131.068 14.0784 130.421 14.1569 129.716 14.2353C129.049 14.2745 128.343 14.2745 127.598 14.2353C126.853 14.1961 126.108 14.0588 125.363 13.8235C125.049 13.5098 125.049 13.2353 125.363 13C125.716 12.7255 125.99 12.3333 126.186 11.8235C126.304 11.4706 126.461 11.2353 126.657 11.1176C126.892 10.9608 127.127 10.8627 127.363 10.8235C127.794 10.8235 128.323 10.9216 128.951 11.1176C129.617 11.2745 130.166 11.3726 130.598 11.4118C131.265 11.4902 131.814 11.6078 132.245 11.7647C132.676 11.8824 133.049 12.2353 133.363 12.8235ZM132.127 20.8235C132.363 21.7255 132.539 22.549 132.657 23.2941C132.814 24.0392 132.912 24.7647 132.951 25.4706C133.029 26.1373 133.068 26.8235 133.068 27.5294C133.108 28.2353 133.127 29 133.127 29.8235C133.127 29.9804 133.029 30.1569 132.833 30.3529C132.676 30.5098 132.559 30.6863 132.48 30.8824C132.323 31.2353 132.186 31.451 132.068 31.5294C131.99 31.6078 131.833 31.7059 131.598 31.8235C131.049 32.0588 130.559 32.3922 130.127 32.8235C129.617 32.0784 129.265 31.2157 129.068 30.2353C128.912 29.2549 128.794 28.2353 128.716 27.1765C128.676 26.1176 128.617 25.0588 128.539 24C128.5 22.902 128.363 21.8431 128.127 20.8235C128.01 20.2745 128.049 19.902 128.245 19.7059C128.441 19.5098 128.657 19.3725 128.892 19.2941C129.166 19.2157 129.461 19.2745 129.774 19.4706C130.127 19.6667 130.461 19.8627 130.774 20.0588C131.049 20.2157 131.304 20.3137 131.539 20.3529C131.814 20.3529 132.01 20.5098 132.127 20.8235Z" transform="translate(1 1)" fill="#28324E"/>
<path d="M144.947 15.1765L143.947 16.1765C144.261 16.1373 144.731 16.0588 145.359 15.9412C146.026 15.7843 146.673 15.7059 147.3 15.7059C147.771 15.7843 148.163 15.9412 148.477 16.1765C148.79 16.4118 148.986 16.8627 149.065 17.5294C149.222 18.4706 149.457 19.4314 149.771 20.4118C150.124 21.3529 150.378 22.2941 150.535 23.2353C150.731 24.1765 150.731 25.0784 150.535 25.9412C150.339 26.7647 149.81 27.5098 148.947 28.1765C148.045 29.549 147.045 30.7059 145.947 31.6471C144.888 32.549 143.771 33.0784 142.594 33.2353C141.81 33.3529 140.947 33.2353 140.006 32.8824C139.065 32.5686 138.378 32 137.947 31.1765C137.829 31.2549 137.731 31.2745 137.653 31.2353C137.575 31.1569 137.496 31.0784 137.418 31C137.339 30.9216 137.261 30.902 137.182 30.9412C137.143 30.9804 137.104 30.9608 137.065 30.8824C137.026 30.7647 137.006 30.6078 137.006 30.4118V30.2941V30.1765C137.045 28.8039 137.163 27.4314 137.359 26.0588C137.594 24.6471 137.928 23.2941 138.359 22C138.829 20.6667 139.418 19.4314 140.124 18.2941C140.869 17.1176 141.81 16.0784 142.947 15.1765C143.339 14.9412 143.771 14.8627 144.241 14.9412C144.32 14.9412 144.418 14.9412 144.535 14.9412C144.653 14.9412 144.79 15.0196 144.947 15.1765ZM142.947 19.1765C142.712 19.1373 142.575 19.0588 142.535 18.9412C142.496 18.8235 142.496 18.6863 142.535 18.5294C142.614 18.3333 142.692 18.1176 142.771 17.8824C142.888 17.6471 142.947 17.4118 142.947 17.1765C142.124 17.9216 141.477 18.8235 141.006 19.8824C140.575 20.9412 140.261 22.0392 140.065 23.1765C139.869 24.2745 139.771 25.3529 139.771 26.4118C139.81 27.4706 139.869 28.3922 139.947 29.1765C140.026 29.8431 140.163 30.3922 140.359 30.8235C140.555 31.2157 140.849 31.451 141.241 31.5294C141.673 31.6471 142.241 31.5294 142.947 31.1765C143.967 30.6667 144.79 29.9608 145.418 29.0588C146.045 28.1569 146.555 27.1961 146.947 26.1765C147.104 25.6275 147.222 24.9804 147.3 24.2353C147.418 23.451 147.398 22.7255 147.241 22.0588C147.045 21.1569 146.535 20.5098 145.712 20.1176C144.928 19.6863 144.006 19.3725 142.947 19.1765Z" transform="translate(1 1)" fill="#28324E"/>
<path d="M171.42 13.1765C171.42 13.5294 171.479 13.9804 171.596 14.5294C171.714 15.0392 171.675 15.451 171.479 15.7647C171.4 15.8431 171.361 16 171.361 16.2353C171.361 16.4314 171.302 16.5686 171.185 16.6471L170.42 16.1765C169.793 15.8627 169.087 15.7255 168.302 15.7647C167.557 15.8039 166.793 15.9804 166.008 16.2941C165.459 16.5294 164.91 16.8627 164.361 17.2941C163.851 17.6863 163.361 18.1373 162.891 18.6471C162.42 19.1569 161.989 19.6863 161.596 20.2353C161.204 20.7843 160.871 21.3137 160.596 21.8235C159.969 22.9608 159.655 24.3333 159.655 25.9412C159.695 27.549 160.283 29.6275 161.42 32.1765C161.42 32.451 161.224 32.7843 160.832 33.1765C160.753 33.2549 160.655 33.3725 160.538 33.5294C160.42 33.6863 160.322 33.8039 160.244 33.8824C159.93 34.1569 159.734 34.3922 159.655 34.5882C159.616 34.7843 159.498 34.9216 159.302 35C158.989 35.1176 158.695 34.8431 158.42 34.1765C157.753 33 157.106 31.5686 156.479 29.8824C155.891 28.1569 155.322 26.3922 154.773 24.5882C154.263 22.7843 153.793 21.0588 153.361 19.4118C152.969 17.7255 152.655 16.3137 152.42 15.1765C152.302 14.8627 152.283 14.5686 152.361 14.2941C152.44 13.9804 152.557 13.7255 152.714 13.5294C152.832 13.3726 152.969 13.3333 153.126 13.4118C153.322 13.4902 153.479 13.5294 153.596 13.5294C154.106 13.5294 154.42 13.6275 154.538 13.8235C154.655 14.0196 154.851 14.2745 155.126 14.5882C155.675 15.2157 156.106 16.0588 156.42 17.1176C156.734 18.1765 157.126 19.4314 157.596 20.8824C158.224 19.8235 159.028 18.8039 160.008 17.8235C161.028 16.8431 162.126 15.9608 163.302 15.1765C164.479 14.3529 165.695 13.6863 166.949 13.1765C168.204 12.6667 169.42 12.3529 170.596 12.2353C170.832 12.1961 171.028 12.2745 171.185 12.4706C171.381 12.6275 171.459 12.8627 171.42 13.1765Z" transform="translate(1 1)" fill="#28324E"/>
<path d="M26.4118 21.6471C26.2941 21.8431 26.1176 21.9804 25.8823 22.0588C25.6863 22.098 25.4902 22.1765 25.2941 22.2941C25.098 22.4118 24.902 22.5686 24.7059 22.7647C24.5098 22.9608 24.3137 23.1176 24.1176 23.2353C24.6667 25.3529 25.098 27.1961 25.4118 28.7647C25.7255 30.3333 25.9216 31.5098 26 32.2941C26.0784 33.0784 26.1373 33.9412 26.1765 34.8824C26.2157 35.8235 26.2353 36.6863 26.2353 37.4706C26.2353 38.0588 26.1961 38.5294 26.1176 38.8824C26.0784 39.2745 26 39.6471 25.8823 40C25.4118 39.4118 25.0196 38.7843 24.7059 38.1176C24.4314 37.451 24.1373 36.7843 23.8235 36.1176C23.1569 34.1176 22.5098 32.0196 21.8824 29.8235C21.2941 27.6275 20.7059 25.3922 20.1176 23.1176C19.0196 23.0784 17.8431 23.0588 16.5882 23.0588C15.3333 23.0588 14.0784 23.0588 12.8235 23.0588C11.5686 23.0588 10.3725 23.0784 9.23529 23.1176C8.13725 23.1176 7.17647 23.1373 6.35294 23.1765C6.27451 23.4118 6.19608 23.6863 6.11765 24C5.88235 24.5098 5.68627 25.0784 5.52941 25.7059C5.37255 26.2941 5.23529 26.9412 5.11765 27.6471C5 28.3137 4.86274 29.0196 4.70588 29.7647C4.54902 30.5098 4.35294 31.2549 4.11765 32C4.62745 32 5.11765 31.8431 5.58823 31.5294C6.09804 31.1765 6.60784 31 7.11765 31C6.76471 31.3529 6.45098 31.7451 6.17647 32.1765C5.94118 32.6078 5.72549 33.1765 5.52941 33.8824C5.4902 34.0784 5.37255 34.2745 5.17647 34.4706C4.98039 34.7059 4.84314 34.8824 4.76471 35C4.68627 35.1569 4.60784 35.3137 4.52941 35.4706C4.45098 35.6667 4.35294 35.8039 4.23529 35.8824C3.96078 36.0392 3.72549 36.1176 3.52941 36.1176C3.33333 36.1569 3.19608 36.1176 3.11765 36C2.80392 35.5294 2.58824 35.0196 2.47059 34.4706C2.39216 33.9608 2.31373 33.4118 2.23529 32.8235C2.23529 31.7647 2.37255 30.3922 2.64706 28.7059C2.92157 27.0196 3.27451 25.2157 3.70588 23.2941C3.39216 23.2157 3.07843 23.0784 2.76471 22.8824C2.45098 22.6471 2.17647 22.4902 1.94118 22.4118C1.5098 22.2157 1.15686 22.1176 0.882353 22.1176C0.607843 22.0784 0.313726 21.9216 0 21.6471L3.58824 20.7059C3.78431 20.7059 4.03922 20.6667 4.35294 20.5882C4.82353 18.7451 5.29412 16.9804 5.76471 15.2941C6.23529 13.6078 6.68627 12.1765 7.11765 11C7.43137 10.098 7.80392 9.05882 8.23529 7.88235C8.70588 6.70588 9.23529 5.58824 9.82353 4.52941C10.451 3.43137 11.1373 2.4902 11.8824 1.70588C12.6667 0.92157 13.5098 0.431373 14.4118 0.235295C14.6863 0.156864 14.9608 0.0980415 15.2353 0.0588263C15.5098 0.0196088 15.8039 0 16.1176 0C16.4314 0 16.6667 0.156863 16.8235 0.470589C16.9804 0.7451 17.2157 1.09804 17.5294 1.52941C17.7255 1.88235 17.902 2.19608 18.0588 2.47059C18.2549 2.70588 18.451 3.21569 18.6471 4C19.5882 6.86275 20.4706 9.7451 21.2941 12.6471C22.1176 15.5098 22.8431 18.2157 23.4706 20.7647L27.0588 21.5294L26.4118 21.6471ZM14.4118 2.76471C13.7451 3.66667 13.1176 4.66667 12.5294 5.76471C11.9412 6.82353 11.3529 8.05882 10.7647 9.47059C10.1765 10.8431 9.58823 12.4314 9 14.2353C8.41176 16 7.80392 18 7.17647 20.2353C9.21569 20 11.2549 19.8627 13.2941 19.8235C15.3333 19.7843 17.3529 19.8627 19.3529 20.0588C18.5294 16.8824 17.7255 13.8039 16.9412 10.8235C16.1569 7.80392 15.3137 5.11765 14.4118 2.76471Z" fill="#4B77BE"/>
<path d="M33.5882 24.1765C34.2549 23.5098 34.9216 22.8039 35.5882 22.0588C36.2941 21.2745 37.0196 20.5294 37.7647 19.8235C38.5098 19.1176 39.2745 18.4902 40.0588 17.9412C40.8431 17.3529 41.6667 16.8824 42.5294 16.5294C42.7255 16.451 42.902 16.4314 43.0588 16.4706C43.2549 16.5098 43.451 16.4902 43.6471 16.4118C43.9608 16.4118 44.2353 16.4118 44.4706 16.4118C44.7059 16.4118 44.9216 16.4902 45.1176 16.6471C45.6667 17 46.098 17.5098 46.4118 18.1765C46.7647 18.8039 47.0588 19.5098 47.2941 20.2941C47.451 20.7255 47.5294 21.1373 47.5294 21.5294C47.5686 21.9216 47.6863 22.3726 47.8823 22.8824C48.1176 23.6275 48.3725 24.3922 48.6471 25.1765C48.9608 25.9216 49.0784 26.6471 49 27.3529C48.9608 27.549 48.902 27.7255 48.8235 27.8824C48.7451 28 48.6471 28.1569 48.5294 28.3529C48.451 28.5098 48.3137 28.7059 48.1176 28.9412C47.9216 29.1765 47.7255 29.3529 47.5294 29.4706C47.3333 29.6275 47.1961 29.7647 47.1176 29.8824C47.0784 29.9608 46.902 30.0588 46.5882 30.1765C46.0784 29.4314 45.6863 28.6275 45.4118 27.7647C45.1372 26.902 44.902 26 44.7059 25.0588C44.5098 24.1176 44.3333 23.1569 44.1765 22.1765C44.0196 21.1961 43.8235 20.1961 43.5882 19.1765C43.5098 18.902 43.2549 18.7451 42.8235 18.7059C42.4314 18.6667 41.9608 18.8039 41.4118 19.1176C40.902 19.3922 40.3529 19.8431 39.7647 20.4706C39.1765 21.098 38.6471 21.902 38.1765 22.8824C37.8627 23.5882 37.5686 24.3333 37.2941 25.1176C37.0196 25.8627 36.7059 26.6275 36.3529 27.4118C36.0392 28.1569 35.6471 28.902 35.1765 29.6471C34.7451 30.3529 34.2157 31 33.5882 31.5882C33.3922 31.7843 33.2549 31.8039 33.1765 31.6471C33.098 31.4902 32.902 31.3529 32.5882 31.2353C32.3529 31.1569 32.2157 31.0784 32.1765 31C32.1765 30.9216 32.1176 30.6863 32 30.2941C31.7647 29.4706 31.5098 28.5294 31.2353 27.4706C31 26.4118 30.7255 25.2941 30.4118 24.1176C30.1373 22.9412 29.8431 21.7647 29.5294 20.5882C29.2157 19.3725 28.902 18.2353 28.5882 17.1765L28.2353 16.1176C28.3137 15.9608 28.451 15.8235 28.6471 15.7059C28.8823 15.5882 29.1176 15.4902 29.3529 15.4118C29.5882 15.3333 29.8431 15.3529 30.1176 15.4706C30.3922 15.5882 30.6078 15.6471 30.7647 15.6471C31.1961 15.6471 31.5686 15.9216 31.8823 16.4706C32.2353 17.0196 32.5294 17.7255 32.7647 18.5882C33 19.4118 33.1765 20.3333 33.2941 21.3529C33.451 22.3333 33.549 23.2745 33.5882 24.1765Z" fill="#4B77BE"/>
<path d="M59.1392 12.8235C59.453 13.1373 59.5706 13.3922 59.4922 13.5882C59.453 13.7843 59.3353 13.8627 59.1392 13.8235C58.6294 13.8235 58.0608 13.8824 57.4334 14C56.8451 14.0784 56.1981 14.1569 55.4922 14.2353C54.8255 14.2745 54.1196 14.2745 53.3745 14.2353C52.6294 14.1961 51.8843 14.0588 51.1392 13.8235C50.8255 13.5098 50.8255 13.2353 51.1392 13C51.4922 12.7255 51.7667 12.3333 51.9628 11.8235C52.0804 11.4706 52.2373 11.2353 52.4334 11.1176C52.6687 10.9608 52.9039 10.8627 53.1392 10.8235C53.5706 10.8235 54.1 10.9216 54.7275 11.1176C55.3941 11.2745 55.9432 11.3726 56.3745 11.4118C57.0412 11.4902 57.5902 11.6078 58.0216 11.7647C58.453 11.8824 58.8255 12.2353 59.1392 12.8235ZM57.9039 20.8235C58.1392 21.7255 58.3157 22.549 58.4334 23.2941C58.5902 24.0392 58.6883 24.7647 58.7275 25.4706C58.8059 26.1373 58.8451 26.8235 58.8451 27.5294C58.8843 28.2353 58.9039 29 58.9039 29.8235C58.9039 29.9804 58.8059 30.1569 58.6098 30.3529C58.453 30.5098 58.3353 30.6863 58.2569 30.8824C58.1 31.2353 57.9628 31.451 57.8451 31.5294C57.7667 31.6078 57.6098 31.7059 57.3745 31.8235C56.8255 32.0588 56.3353 32.3922 55.9039 32.8235C55.3941 32.0784 55.0412 31.2157 54.8451 30.2353C54.6883 29.2549 54.5706 28.2353 54.4922 27.1765C54.453 26.1176 54.3941 25.0588 54.3157 24C54.2765 22.902 54.1392 21.8431 53.9039 20.8235C53.7863 20.2745 53.8255 19.902 54.0216 19.7059C54.2177 19.5098 54.4334 19.3725 54.6687 19.2941C54.9432 19.2157 55.2373 19.2745 55.551 19.4706C55.9039 19.6667 56.2373 19.8627 56.551 20.0588C56.8255 20.2157 57.0804 20.3137 57.3157 20.3529C57.5902 20.3529 57.7863 20.5098 57.9039 20.8235Z" fill="#4B77BE"/>
<path d="M64.8414 14.1765C65.0767 15.1961 65.1748 16.2549 65.1356 17.3529C65.0963 18.451 65.0375 19.5686 64.9591 20.7059C64.9199 21.8039 64.9199 22.9216 64.9591 24.0588C65.0375 25.1569 65.3316 26.1961 65.8414 27.1765C66.7434 24.9412 67.9787 22.9216 69.5473 21.1176C71.1159 19.2745 72.7826 17.6275 74.5473 16.1765C74.7826 15.9804 75.0179 15.8627 75.2532 15.8235C75.5277 15.7451 75.7826 15.6667 76.0179 15.5882C76.214 15.5098 76.3905 15.451 76.5473 15.4118C76.7434 15.3333 76.9983 15.3726 77.312 15.5294C78.0963 15.9608 78.5473 16.7843 78.665 18C78.7826 19.2157 78.8414 20.9412 78.8414 23.1765C79.4297 22.5882 80.0179 21.9412 80.6061 21.2353C81.2336 20.4902 81.861 19.7843 82.4885 19.1176C83.1159 18.451 83.763 17.8627 84.4297 17.3529C85.0963 16.8431 85.8022 16.4706 86.5473 16.2353C86.7826 16.1569 87.0179 16.1569 87.2532 16.2353C87.5277 16.2745 87.7826 16.2941 88.0179 16.2941C88.1748 16.2941 88.312 16.2745 88.4297 16.2353C88.5473 16.1569 88.6846 16.1373 88.8414 16.1765C89.0767 16.2157 89.2728 16.3333 89.4297 16.5294C89.6258 16.7255 89.763 16.9412 89.8414 17.1765C89.9983 17.7647 90.214 18.5882 90.4885 19.6471C90.763 20.6667 90.9983 21.7255 91.1944 22.8235C91.4297 23.8824 91.6061 24.8824 91.7238 25.8235C91.8414 26.7647 91.8414 27.4314 91.7238 27.8235C91.6454 28.1765 91.5473 28.4118 91.4297 28.5294C91.3512 28.6471 91.1552 28.8627 90.8414 29.1765C90.763 29.1765 90.665 29.2353 90.5473 29.3529C90.4689 29.4706 90.3708 29.5882 90.2532 29.7059C90.0963 29.8627 89.9591 30.0196 89.8414 30.1765C89.3316 29.4314 88.9395 28.6275 88.665 27.7647C88.3905 26.902 88.1552 26 87.9591 25.0588C87.763 24.1176 87.5865 23.1569 87.4297 22.1765C87.2728 21.1961 87.0767 20.1961 86.8414 19.1765C85.7042 19.7647 84.8022 20.451 84.1356 21.2353C83.5081 21.9804 82.9983 22.7843 82.6061 23.6471C82.214 24.4706 81.861 25.3137 81.5473 26.1765C81.2336 27.0392 80.8414 27.8627 80.3709 28.6471C79.9395 29.3137 79.5081 29.8431 79.0767 30.2353C78.6454 30.6275 78.2924 30.8039 78.0179 30.7647C77.7826 30.7255 77.6061 30.5098 77.4885 30.1176C77.3708 29.7255 77.214 29.1373 77.0179 28.3529C76.6258 26.7451 76.2532 25.0196 75.9003 23.1765C75.5865 21.3333 75.2336 19.6667 74.8414 18.1765C74.0963 18.4118 73.3512 18.8431 72.6061 19.4706C71.9003 20.0588 71.2336 20.7647 70.6061 21.5882C69.9787 22.3725 69.4101 23.2549 68.9003 24.2353C68.4297 25.2157 68.0767 26.1961 67.8414 27.1765C68.3512 28.1961 68.3709 29.0392 67.9003 29.7059C67.7042 30.0196 67.4297 30.2941 67.0767 30.5294C66.7238 30.7255 66.312 30.9412 65.8414 31.1765C65.5669 31.451 65.2728 31.549 64.9591 31.4706C64.6454 31.3922 64.3905 31.2157 64.1944 30.9412C63.9983 30.6274 63.8807 30.3726 63.8414 30.1765C63.6061 28.9216 63.3709 27.6274 63.1356 26.2941C62.9003 24.9216 62.7434 23.549 62.665 22.1765C62.6258 20.8039 62.6846 19.451 62.8414 18.1176C62.9983 16.7451 63.3316 15.4314 63.8414 14.1765C63.9199 13.9412 63.9983 13.8235 64.0767 13.8235C64.1552 13.8235 64.2336 13.8627 64.312 13.9412C64.3905 13.9804 64.4689 14.0196 64.5473 14.0588C64.6258 14.098 64.665 14.1176 64.665 14.1176C64.7042 14.1176 64.763 14.1373 64.8414 14.1765Z" fill="#4B77BE"/>
<path d="M108.889 14.8235C109.399 16.0784 109.869 17.4314 110.301 18.8824C110.771 20.3333 111.085 21.7843 111.242 23.2353C111.438 24.6471 111.438 26.0196 111.242 27.3529C111.085 28.6863 110.634 29.8431 109.889 30.8235C109.575 31.2157 109.202 31.3725 108.771 31.2941C108.614 31.2549 108.477 31.1569 108.359 31C108.242 30.8431 108.085 30.7059 107.889 30.5882C107.732 30.4706 107.555 30.3725 107.359 30.2941C107.202 30.2157 107.046 30.0588 106.889 29.8235C106.301 30.0196 105.712 30.3137 105.124 30.7059C104.575 31.0588 104.006 31.4314 103.418 31.8235C102.83 32.2157 102.222 32.5882 101.595 32.9412C100.967 33.3333 100.32 33.6078 99.6535 33.7647C98.9476 33.9608 98.4182 33.9216 98.0652 33.6471C97.7515 33.4118 97.3986 33.1373 97.0064 32.8235C96.7319 32.5882 96.5554 32.4314 96.477 32.3529C96.3986 32.3137 96.3201 32.0784 96.2417 31.6471C96.1241 30.7843 96.1045 29.8627 96.1829 28.8824C96.3005 27.8627 96.5358 26.8431 96.8888 25.8235C97.8692 22.8431 99.8692 20.8431 102.889 19.8235C103.242 19.7059 103.595 19.6863 103.948 19.7647C104.34 19.8039 104.712 19.902 105.065 20.0588C105.418 20.2157 105.752 20.4118 106.065 20.6471C106.418 20.8824 106.732 21.1176 107.006 21.3529L107.948 22.1176C108.144 21.451 108.124 20.7451 107.889 20C107.693 19.2157 107.379 18.4902 106.948 17.8235C106.516 17.1176 106.026 16.4902 105.477 15.9412C104.928 15.3922 104.399 15.0196 103.889 14.8235C101.889 14.8235 100.085 15.2941 98.477 16.2353C96.9084 17.1373 95.379 18.3333 93.8888 19.8235C93.8103 19.902 93.7123 19.9608 93.5947 20C93.5162 20.0392 93.4378 20.0784 93.3594 20.1176C93.2417 20.1961 93.1045 20.2157 92.9476 20.1765C92.83 20.1373 92.8103 20.0196 92.8888 19.8235C93.1241 18.5686 93.5947 17.451 94.3005 16.4706C95.0064 15.451 95.8299 14.5686 96.7711 13.8235C97.7123 13.0784 98.7123 12.451 99.7711 11.9412C100.83 11.4314 101.869 11.0588 102.889 10.8235C103.046 10.7451 103.183 10.7059 103.301 10.7059C103.457 10.6667 103.634 10.6471 103.83 10.6471C104.104 10.6471 104.359 10.7255 104.595 10.8824C104.83 11.0392 105.104 11.2157 105.418 11.4118C105.81 11.6078 106.202 11.8431 106.595 12.1176C106.987 12.3529 107.34 12.6471 107.653 13C107.928 13.3137 108.163 13.6275 108.359 13.9412C108.555 14.2549 108.732 14.549 108.889 14.8235ZM106.889 25.2941C106.653 24.7843 106.281 24.3137 105.771 23.8824C105.301 23.451 104.752 23.1373 104.124 22.9412C103.497 22.7059 102.81 22.6471 102.065 22.7647C101.359 22.8824 100.634 23.2353 99.8888 23.8235C99.6535 24.3333 99.4182 24.902 99.1829 25.5294C98.9476 26.1176 98.7711 26.7255 98.6535 27.3529C98.5358 27.9412 98.477 28.549 98.477 29.1765C98.5162 29.7647 98.6535 30.3137 98.8888 30.8235C100.379 30.3137 101.83 29.7255 103.242 29.0588C104.653 28.3922 105.869 27.8039 106.889 27.2941C107.124 27.0588 107.261 26.8627 107.301 26.7059C107.34 26.549 107.32 26.4118 107.242 26.2941C107.202 26.1765 107.124 26.0392 107.006 25.8824C106.928 25.7255 106.889 25.5294 106.889 25.2941Z" fill="#4B77BE"/>
<path d="M118.733 4.17647C119.204 6.29412 119.576 8.41177 119.851 10.5294C120.125 12.6471 120.38 14.7647 120.615 16.8824C120.851 19 121.086 21.1176 121.321 23.2353C121.596 25.3529 121.949 27.4706 122.38 29.5882C122.302 30.098 122.243 30.5098 122.204 30.8235C122.164 31.1373 122.066 31.3333 121.909 31.4118C121.713 31.5294 121.517 31.6667 121.321 31.8235C121.164 31.9412 120.988 32.0392 120.792 32.1176C120.713 32.1569 120.635 32.2157 120.557 32.2941C120.478 32.4118 120.38 32.4902 120.262 32.5294C120.184 32.5686 120.106 32.5686 120.027 32.5294C119.949 32.4902 119.851 32.3725 119.733 32.1765C118.988 29.9412 118.302 27.6863 117.674 25.4118C117.086 23.1373 116.596 20.8431 116.204 18.5294C115.851 16.2157 115.615 13.8824 115.498 11.5294C115.419 9.13726 115.498 6.68628 115.733 4.17647C115.733 3.58824 115.909 3.21569 116.262 3.05882C116.419 2.98039 116.615 3.03922 116.851 3.2353C117.125 3.43137 117.36 3.56863 117.557 3.64706C117.831 3.76471 118.047 3.84314 118.204 3.88235C118.36 3.88235 118.537 3.98039 118.733 4.17647Z" fill="#4B77BE"/>
<path d="M133.363 12.8235C133.676 13.1373 133.794 13.3922 133.716 13.5882C133.676 13.7843 133.559 13.8627 133.363 13.8235C132.853 13.8235 132.284 13.8824 131.657 14C131.068 14.0784 130.421 14.1569 129.716 14.2353C129.049 14.2745 128.343 14.2745 127.598 14.2353C126.853 14.1961 126.108 14.0588 125.363 13.8235C125.049 13.5098 125.049 13.2353 125.363 13C125.716 12.7255 125.99 12.3333 126.186 11.8235C126.304 11.4706 126.461 11.2353 126.657 11.1176C126.892 10.9608 127.127 10.8627 127.363 10.8235C127.794 10.8235 128.323 10.9216 128.951 11.1176C129.617 11.2745 130.166 11.3726 130.598 11.4118C131.265 11.4902 131.814 11.6078 132.245 11.7647C132.676 11.8824 133.049 12.2353 133.363 12.8235ZM132.127 20.8235C132.363 21.7255 132.539 22.549 132.657 23.2941C132.814 24.0392 132.912 24.7647 132.951 25.4706C133.029 26.1373 133.068 26.8235 133.068 27.5294C133.108 28.2353 133.127 29 133.127 29.8235C133.127 29.9804 133.029 30.1569 132.833 30.3529C132.676 30.5098 132.559 30.6863 132.48 30.8824C132.323 31.2353 132.186 31.451 132.068 31.5294C131.99 31.6078 131.833 31.7059 131.598 31.8235C131.049 32.0588 130.559 32.3922 130.127 32.8235C129.617 32.0784 129.265 31.2157 129.068 30.2353C128.912 29.2549 128.794 28.2353 128.716 27.1765C128.676 26.1176 128.617 25.0588 128.539 24C128.5 22.902 128.363 21.8431 128.127 20.8235C128.01 20.2745 128.049 19.902 128.245 19.7059C128.441 19.5098 128.657 19.3725 128.892 19.2941C129.166 19.2157 129.461 19.2745 129.774 19.4706C130.127 19.6667 130.461 19.8627 130.774 20.0588C131.049 20.2157 131.304 20.3137 131.539 20.3529C131.814 20.3529 132.01 20.5098 132.127 20.8235Z" fill="#4B77BE"/>
<path d="M144.947 15.1765L143.947 16.1765C144.261 16.1373 144.731 16.0588 145.359 15.9412C146.026 15.7843 146.673 15.7059 147.3 15.7059C147.771 15.7843 148.163 15.9412 148.477 16.1765C148.79 16.4118 148.986 16.8627 149.065 17.5294C149.222 18.4706 149.457 19.4314 149.771 20.4118C150.124 21.3529 150.378 22.2941 150.535 23.2353C150.731 24.1765 150.731 25.0784 150.535 25.9412C150.339 26.7647 149.81 27.5098 148.947 28.1765C148.045 29.549 147.045 30.7059 145.947 31.6471C144.888 32.549 143.771 33.0784 142.594 33.2353C141.81 33.3529 140.947 33.2353 140.006 32.8824C139.065 32.5686 138.378 32 137.947 31.1765C137.829 31.2549 137.731 31.2745 137.653 31.2353C137.575 31.1569 137.496 31.0784 137.418 31C137.339 30.9216 137.261 30.902 137.182 30.9412C137.143 30.9804 137.104 30.9608 137.065 30.8824C137.026 30.7647 137.006 30.6078 137.006 30.4118V30.2941V30.1765C137.045 28.8039 137.163 27.4314 137.359 26.0588C137.594 24.6471 137.928 23.2941 138.359 22C138.829 20.6667 139.418 19.4314 140.124 18.2941C140.869 17.1176 141.81 16.0784 142.947 15.1765C143.339 14.9412 143.771 14.8627 144.241 14.9412C144.32 14.9412 144.418 14.9412 144.535 14.9412C144.653 14.9412 144.79 15.0196 144.947 15.1765ZM142.947 19.1765C142.712 19.1373 142.575 19.0588 142.535 18.9412C142.496 18.8235 142.496 18.6863 142.535 18.5294C142.614 18.3333 142.692 18.1176 142.771 17.8824C142.888 17.6471 142.947 17.4118 142.947 17.1765C142.124 17.9216 141.477 18.8235 141.006 19.8824C140.575 20.9412 140.261 22.0392 140.065 23.1765C139.869 24.2745 139.771 25.3529 139.771 26.4118C139.81 27.4706 139.869 28.3922 139.947 29.1765C140.026 29.8431 140.163 30.3922 140.359 30.8235C140.555 31.2157 140.849 31.451 141.241 31.5294C141.673 31.6471 142.241 31.5294 142.947 31.1765C143.967 30.6667 144.79 29.9608 145.418 29.0588C146.045 28.1569 146.555 27.1961 146.947 26.1765C147.104 25.6275 147.222 24.9804 147.3 24.2353C147.418 23.451 147.398 22.7255 147.241 22.0588C147.045 21.1569 146.535 20.5098 145.712 20.1176C144.928 19.6863 144.006 19.3725 142.947 19.1765Z" fill="#4B77BE"/>
<path d="M171.42 13.1765C171.42 13.5294 171.479 13.9804 171.596 14.5294C171.714 15.0392 171.675 15.451 171.479 15.7647C171.4 15.8431 171.361 16 171.361 16.2353C171.361 16.4314 171.302 16.5686 171.185 16.6471L170.42 16.1765C169.793 15.8627 169.087 15.7255 168.302 15.7647C167.557 15.8039 166.793 15.9804 166.008 16.2941C165.459 16.5294 164.91 16.8627 164.361 17.2941C163.851 17.6863 163.361 18.1373 162.891 18.6471C162.42 19.1569 161.989 19.6863 161.596 20.2353C161.204 20.7843 160.871 21.3137 160.596 21.8235C159.969 22.9608 159.655 24.3333 159.655 25.9412C159.695 27.549 160.283 29.6275 161.42 32.1765C161.42 32.451 161.224 32.7843 160.832 33.1765C160.753 33.2549 160.655 33.3725 160.538 33.5294C160.42 33.6863 160.322 33.8039 160.244 33.8824C159.93 34.1569 159.734 34.3922 159.655 34.5882C159.616 34.7843 159.498 34.9216 159.302 35C158.989 35.1176 158.695 34.8431 158.42 34.1765C157.753 33 157.106 31.5686 156.479 29.8824C155.891 28.1569 155.322 26.3922 154.773 24.5882C154.263 22.7843 153.793 21.0588 153.361 19.4118C152.969 17.7255 152.655 16.3137 152.42 15.1765C152.302 14.8627 152.283 14.5686 152.361 14.2941C152.44 13.9804 152.557 13.7255 152.714 13.5294C152.832 13.3726 152.969 13.3333 153.126 13.4118C153.322 13.4902 153.479 13.5294 153.596 13.5294C154.106 13.5294 154.42 13.6275 154.538 13.8235C154.655 14.0196 154.851 14.2745 155.126 14.5882C155.675 15.2157 156.106 16.0588 156.42 17.1176C156.734 18.1765 157.126 19.4314 157.596 20.8824C158.224 19.8235 159.028 18.8039 160.008 17.8235C161.028 16.8431 162.126 15.9608 163.302 15.1765C164.479 14.3529 165.695 13.6863 166.949 13.1765C168.204 12.6667 169.42 12.3529 170.596 12.2353C170.832 12.1961 171.028 12.2745 171.185 12.4706C171.381 12.6275 171.459 12.8627 171.42 13.1765Z" fill="#4B77BE"/>
</svg>
